<svg xmlns="http://www.w3.org/2000/svg" version="1.1" xmlns:xlink="http://www.w3.org/1999/xlink" xmlns:svgjs="http://svgjs.dev/svgjs" width="1500" height="696" viewBox="0 0 1500 696"><g transform="matrix(1,0,0,1,-0.9090909090909918,-0.11453996230795838)"><svg viewBox="0 0 396 184" data-background-color="#080b13" preserveAspectRatio="xMidYMid meet" height="696" width="1500" xmlns="http://www.w3.org/2000/svg" xmlns:xlink="http://www.w3.org/1999/xlink"><g id="tight-bounds" transform="matrix(1,0,0,1,0.2400000000000091,0.03028067969060544)"><svg viewBox="0 0 395.52 183.9394386406188" height="183.9394386406188" width="395.52"><g><svg viewBox="0 0 395.52 183.9394386406188" height="183.9394386406188" width="395.52"><g transform="matrix(1,0,0,1,0,111.77734741629232)"><svg viewBox="0 0 395.52 72.16209122432647" height="72.16209122432647" width="395.52"><g id="textblocktransform"><svg viewBox="0 0 395.52 72.16209122432647" height="72.16209122432647" width="395.52" id="textblock"><g><svg viewBox="0 0 395.52 72.16209122432647" height="72.16209122432647" width="395.52"><g transform="matrix(1,0,0,1,0,0)"><svg width="395.52" viewBox="0.85 -33.15 183.04 33.39" height="72.16209122432647" data-palette-color="#ffffff"><path d="M9.25-28.91L0.85-28.91 0.85-31.35 20.9-31.35 20.9-28.91 12.38-28.91 12.38 0 9.25 0 9.25-28.91ZM34.15-21.85L34.15-21.85Q31.08-21.85 29.44-19.71 27.81-17.58 27.51-13.65L27.51-13.65 39.89-13.65 39.89-14.87Q39.89-18.07 38.34-19.96 36.79-21.85 34.15-21.85ZM34.57-2.34L34.57-2.34Q38.33-2.34 41.4-4.3L41.4-4.3 42.36-1.83Q40.7-0.81 38.64-0.28 36.59 0.24 34.74 0.24L34.74 0.24Q29.81 0.24 27.1-2.73 24.39-5.71 24.39-12.11L24.39-12.11Q24.39-18.24 27.02-21.33 29.66-24.41 34.13-24.41L34.13-24.41Q38.16-24.41 40.48-21.78 42.8-19.14 42.8-14.75L42.8-14.75Q42.8-13.75 42.6-11.45L42.6-11.45 27.51-11.45Q27.54-9.28 27.95-7.63 28.37-5.98 29-4.99 29.64-4 30.58-3.39 31.52-2.78 32.47-2.56 33.42-2.34 34.57-2.34ZM63.59-4.15L63.59-4.15 64.77-1.93Q61.79 0.24 57.66 0.24L57.66 0.24Q53.39 0.24 50.65-2.95 47.92-6.15 47.92-12.08L47.92-12.08Q47.92-24.41 57.39-24.41L57.39-24.41Q60.71-24.41 63.81-22.95L63.81-22.95 63.81-16.65 61.32-16.41 61.32-21.29Q59.71-21.92 57.34-21.92L57.34-21.92Q55.54-21.92 54.28-21.22 53.02-20.51 52.33-19.14 51.63-17.77 51.34-16.05 51.04-14.33 51.04-12.04L51.04-12.04Q51.04-7.37 52.94-4.83 54.83-2.29 58-2.29L58-2.29Q60.86-2.29 63.59-4.15ZM72.92-20.07L72.92-20.07 72.92 0 69.79 0 69.79-24.05 72.36-24.05 72.58-22.49Q74.97-23.61 76.58-24.01 78.19-24.41 80.05-24.41L80.05-24.41Q83.76-24.41 85.53-22.39 87.3-20.36 87.3-16.19L87.3-16.19 87.3 0 84.17 0 84.17-16.31Q84.17-19.29 83.23-20.57 82.29-21.85 79.88-21.85L79.88-21.85Q76.16-21.85 72.92-20.07ZM97.33-30.86L97.33-30.86Q97.33-31.88 97.96-32.5 98.6-33.11 99.55-33.11L99.55-33.11Q100.55-33.11 101.15-32.54 101.75-31.98 101.75-30.91 101.75-29.83 101.15-29.27 100.55-28.71 99.55-28.71L99.55-28.71Q98.57-28.71 97.95-29.28 97.33-29.86 97.33-30.86ZM97.99-21.85L93.3-21.85 93.3-24.05 101.11-24.05 101.11-2.2 105.8-2.2 105.8 0 93.3 0 93.3-2.2 97.99-2.2 97.99-21.85ZM113.71-28.91L113.71-17.02 124.84-17.02 124.84-14.72 113.71-14.72 113.71 0 110.58 0 110.58-31.35 126.87-31.35 126.4-28.91 113.71-28.91ZM145.25-3.98L145.25-3.98 145.25-24.05 148.37-24.05 148.37 0 145.81 0 145.59-1.56Q143.27-0.46 141.65-0.11 140.02 0.24 138.05 0.24L138.05 0.24Q134.34 0.24 132.6-1.71 130.87-3.66 130.87-7.84L130.87-7.84 130.87-24.05 133.99-24.05 133.99-7.71Q133.99-4.79 134.96-3.56 135.92-2.34 138.36-2.34L138.36-2.34Q139.58-2.34 140.35-2.4 141.12-2.47 142.5-2.84 143.88-3.22 145.25-3.98ZM153.57-30.93L153.57-33.15 162.09-33.15 162.09-2.2 167.24-2.2 167.24 0 153.52 0 153.52-2.2 158.97-2.2 158.97-30.93 153.57-30.93ZM170.22-30.93L170.22-33.15 178.74-33.15 178.74-2.2 183.89-2.2 183.89 0 170.17 0 170.17-2.2 175.61-2.2 175.61-30.93 170.22-30.93Z" opacity="1" transform="matrix(1,0,0,1,0,0)" fill="#ffffff" class="wordmark-text-0" data-fill-palette-color="primary" id="text-0"></path></svg></g></svg></g></svg></g></svg></g><g transform="matrix(1,0,0,1,143.99106054363796,0)"><svg viewBox="0 0 107.53787891272408 94.74160956841823" height="94.74160956841823" width="107.53787891272408"><g><svg xmlns="http://www.w3.org/2000/svg" xmlns:xlink="http://www.w3.org/1999/xlink" version="1.1" x="0" y="0" viewBox="6.3 11.5 87.4 77" style="enable-background:new 0 0 100 100;" xml:space="preserve" height="94.74160956841823" width="107.53787891272408" class="icon-icon-0" data-fill-palette-color="accent" id="icon-0"><path d="M72.3 12.3L71.9 11.5H28.2L6.3 50 28.1 88.5H71.8L93.7 50zM33.3 25.3L9.9 47.7 28.5 14.9zM70.7 14.8L77.1 50.5 36.9 25.8zM35.5 27.3L76.5 52.5 35.5 75.8zM77 54.5L69.8 85.3 37.2 77.2zM33.5 75L9.9 50.5 33.5 27.8zM33.2 77.6L28.6 85.3 11.5 55.1zM35 78.6L66.4 86.5H30.2zM79.3 53.3L90.9 50.8 72.1 84zM90.7 48.9L79.3 51.4 73.4 18.3zM35 24.3L30 13.5H68.2z" fill="#08c8fa" data-fill-palette-color="accent"></path></svg></g></svg></g><g></g></svg></g><defs></defs></svg><rect width="395.52" height="183.9394386406188" fill="none" stroke="none" visibility="hidden"></rect></g></svg></g></svg>